{
	"patcher" : 	{
		"fileversion" : 1,
		"appversion" : 		{
			"major" : 8,
			"minor" : 6,
			"revision" : 0,
			"architecture" : "x64",
			"modernui" : 1
		}
,
		"classnamespace" : "box",
		"rect" : [ 34.0, 87.0, 596.0, 736.0 ],
		"bglocked" : 0,
		"openinpresentation" : 0,
		"default_fontsize" : 12.0,
		"default_fontface" : 0,
		"default_fontname" : "Arial",
		"gridonopen" : 1,
		"gridsize" : [ 15.0, 15.0 ],
		"gridsnaponopen" : 1,
		"objectsnaponopen" : 1,
		"statusbarvisible" : 2,
		"toolbarvisible" : 1,
		"lefttoolbarpinned" : 0,
		"toptoolbarpinned" : 0,
		"righttoolbarpinned" : 0,
		"bottomtoolbarpinned" : 0,
		"toolbars_unpinned_last_save" : 0,
		"tallnewobj" : 0,
		"boxanimatetime" : 200,
		"enablehscroll" : 1,
		"enablevscroll" : 1,
		"devicewidth" : 0.0,
		"description" : "",
		"digest" : "",
		"tags" : "",
		"style" : "",
		"subpatcher_template" : "",
		"assistshowspatchername" : 0,
		"boxes" : [ 			{
				"box" : 				{
					"id" : "obj-75",
					"maxclass" : "comment",
					"numinlets" : 1,
					"numoutlets" : 0,
					"patching_rect" : [ 503.209911942481995, 461.234599947929382, 150.0, 20.0 ],
					"presentation" : 1,
					"presentation_rect" : [ 440.740775942802429, 195.061743974685669, 50.0, 20.0 ],
					"text" : "POTS",
					"textcolor" : [ 1.0, 1.0, 1.0, 1.0 ]
				}

			}
, 			{
				"box" : 				{
					"id" : "obj-74",
					"maxclass" : "comment",
					"numinlets" : 1,
					"numoutlets" : 0,
					"patching_rect" : [ 488.209911942481995, 446.234599947929382, 150.0, 20.0 ],
					"presentation" : 1,
					"presentation_rect" : [ 292.592619955539703, 195.061743974685669, 49.812439501285553, 20.0 ],
					"text" : "LDR",
					"textcolor" : [ 1.0, 1.0, 1.0, 1.0 ]
				}

			}
, 			{
				"box" : 				{
					"id" : "obj-73",
					"maxclass" : "comment",
					"numinlets" : 1,
					"numoutlets" : 0,
					"patching_rect" : [ 473.209911942481995, 431.234599947929382, 150.0, 20.0 ],
					"presentation" : 1,
					"presentation_rect" : [ 172.151896476745605, 195.061743974685669, 69.234552025794983, 20.0 ],
					"text" : "Buttons",
					"textcolor" : [ 1.0, 1.0, 1.0, 1.0 ]
				}

			}
, 			{
				"box" : 				{
					"id" : "obj-72",
					"maxclass" : "comment",
					"numinlets" : 1,
					"numoutlets" : 0,
					"patching_rect" : [ 488.209911942481995, 446.234599947929382, 150.0, 20.0 ],
					"presentation" : 1,
					"presentation_rect" : [ 430.864231944084167, 533.333375930786133, 192.592607975006104, 20.0 ],
					"text" : "OUTPUT",
					"textcolor" : [ 1.0, 1.0, 1.0, 1.0 ]
				}

			}
, 			{
				"box" : 				{
					"id" : "obj-71",
					"maxclass" : "comment",
					"numinlets" : 1,
					"numoutlets" : 0,
					"patching_rect" : [ 473.209911942481995, 431.234599947929382, 150.0, 20.0 ],
					"presentation" : 1,
					"presentation_rect" : [ 243.209895968437195, 533.333375930786133, 180.246927976608276, 20.0 ],
					"text" : "Colorizer FX",
					"textcolor" : [ 1.0, 1.0, 1.0, 1.0 ]
				}

			}
, 			{
				"box" : 				{
					"id" : "obj-70",
					"maxclass" : "comment",
					"numinlets" : 1,
					"numoutlets" : 0,
					"patching_rect" : [ 458.209911942481995, 416.234599947929382, 150.0, 20.0 ],
					"presentation" : 1,
					"presentation_rect" : [ 51.851855993270874, 533.333375930786133, 182.278478622436523, 20.0 ],
					"text" : "OVERLAY FX",
					"textcolor" : [ 1.0, 1.0, 1.0, 1.0 ]
				}

			}
, 			{
				"box" : 				{
					"id" : "obj-69",
					"maxclass" : "comment",
					"numinlets" : 1,
					"numoutlets" : 0,
					"patching_rect" : [ 458.209911942481995, 416.234599947929382, 150.0, 20.0 ],
					"presentation" : 1,
					"presentation_rect" : [ 71.209891974925995, 195.061743974685669, 69.234552025794983, 20.0 ],
					"text" : "Serial Input",
					"textcolor" : [ 1.0, 1.0, 1.0, 1.0 ]
				}

			}
, 			{
				"box" : 				{
					"id" : "obj-68",
					"linecount" : 2,
					"maxclass" : "comment",
					"numinlets" : 1,
					"numoutlets" : 0,
					"patching_rect" : [ 443.209911942481995, 401.234599947929382, 150.0, 33.0 ],
					"presentation" : 1,
					"presentation_rect" : [ 248.148167967796326, 256.790143966674805, 204.938287973403931, 20.0 ],
					"text" : "VIDEO FUNCTION GENERATORS",
					"textcolor" : [ 1.0, 1.0, 1.0, 1.0 ]
				}

			}
, 			{
				"box" : 				{
					"id" : "obj-64",
					"maxclass" : "newobj",
					"numinlets" : 6,
					"numoutlets" : 1,
					"outlettype" : [ "" ],
					"patching_rect" : [ 1454.0, 680.0, 103.0, 22.0 ],
					"text" : "scale 0 1023 0. 1."
				}

			}
, 			{
				"box" : 				{
					"annotation" : "## Technicolor process simulator video effect ##",
					"bgmode" : 1,
					"border" : 0,
					"clickthrough" : 0,
					"enablehscroll" : 0,
					"enablevscroll" : 0,
					"id" : "obj-63",
					"lockeddragscroll" : 0,
					"lockedsize" : 0,
					"maxclass" : "bpatcher",
					"name" : "vz.technicolor8r.maxpat",
					"numinlets" : 3,
					"numoutlets" : 1,
					"offset" : [ 0.0, 0.0 ],
					"outlettype" : [ "jit_gl_texture" ],
					"patching_rect" : [ 853.0, 1254.0, 168.0, 130.0 ],
					"presentation" : 1,
					"presentation_rect" : [ 243.209895968437195, 566.666711926460266, 168.0, 130.0 ],
					"prototypename" : "pixl",
					"varname" : "technicolor8r",
					"viewvisibility" : 1
				}

			}
, 			{
				"box" : 				{
					"id" : "obj-54",
					"maxclass" : "preset",
					"numinlets" : 1,
					"numoutlets" : 5,
					"outlettype" : [ "preset", "int", "preset", "int", "" ],
					"patching_rect" : [ 887.0, 396.0, 100.0, 40.0 ],
					"preset_data" : [  ]
				}

			}
, 			{
				"box" : 				{
					"format" : 6,
					"id" : "obj-50",
					"maxclass" : "flonum",
					"numinlets" : 1,
					"numoutlets" : 2,
					"outlettype" : [ "", "bang" ],
					"parameter_enable" : 0,
					"patching_rect" : [ 785.0, 548.0, 50.0, 22.0 ]
				}

			}
, 			{
				"box" : 				{
					"id" : "obj-47",
					"maxclass" : "newobj",
					"numinlets" : 6,
					"numoutlets" : 1,
					"outlettype" : [ "" ],
					"patching_rect" : [ 785.0, 511.0, 77.0, 22.0 ],
					"text" : "scale 0 1 3 5"
				}

			}
, 			{
				"box" : 				{
					"format" : 6,
					"id" : "obj-45",
					"maxclass" : "flonum",
					"numinlets" : 1,
					"numoutlets" : 2,
					"outlettype" : [ "", "bang" ],
					"parameter_enable" : 0,
					"patching_rect" : [ 785.0, 454.0, 50.0, 22.0 ]
				}

			}
, 			{
				"box" : 				{
					"id" : "obj-43",
					"maxclass" : "newobj",
					"numinlets" : 6,
					"numoutlets" : 1,
					"outlettype" : [ "" ],
					"patching_rect" : [ 828.000024676322937, 624.00001859664917, 110.0, 22.0 ],
					"text" : "scale 0. 0.7 0. 0.25"
				}

			}
, 			{
				"box" : 				{
					"format" : 6,
					"id" : "obj-28",
					"maxclass" : "flonum",
					"numinlets" : 1,
					"numoutlets" : 2,
					"outlettype" : [ "", "bang" ],
					"parameter_enable" : 0,
					"patching_rect" : [ 708.00002110004425, 612.000018239021301, 50.0, 22.0 ]
				}

			}
, 			{
				"box" : 				{
					"annotation" : "## Split audio input into multiple ranges and convert to VIZZIE data ##",
					"bgmode" : 1,
					"border" : 0,
					"clickthrough" : 0,
					"enablehscroll" : 0,
					"enablevscroll" : 0,
					"id" : "obj-21",
					"lockeddragscroll" : 0,
					"lockedsize" : 0,
					"maxclass" : "bpatcher",
					"name" : "vz.audiosplittr.maxpat",
					"numinlets" : 4,
					"numoutlets" : 4,
					"offset" : [ 0.0, 0.0 ],
					"outlettype" : [ "", "", "", "" ],
					"patching_rect" : [ 396.000011801719666, 338.666676759719849, 298.0, 130.0 ],
					"presentation" : 1,
					"presentation_rect" : [ 306.888901829719543, 36.111114978790283, 305.555570125579834, 147.222229242324829 ],
					"prototypename" : "pixl",
					"varname" : "audiosplittr",
					"viewvisibility" : 1
				}

			}
, 			{
				"box" : 				{
					"format" : 6,
					"id" : "obj-6",
					"maxclass" : "flonum",
					"numinlets" : 1,
					"numoutlets" : 2,
					"outlettype" : [ "", "bang" ],
					"parameter_enable" : 0,
					"patching_rect" : [ 1752.0, 782.0, 50.0, 22.0 ]
				}

			}
, 			{
				"box" : 				{
					"id" : "obj-9",
					"maxclass" : "newobj",
					"numinlets" : 6,
					"numoutlets" : 1,
					"outlettype" : [ "" ],
					"patching_rect" : [ 1757.0, 730.0, 103.0, 22.0 ],
					"text" : "scale 0 1023 0. 1."
				}

			}
, 			{
				"box" : 				{
					"format" : 6,
					"id" : "obj-42",
					"maxclass" : "flonum",
					"numinlets" : 1,
					"numoutlets" : 2,
					"outlettype" : [ "", "bang" ],
					"parameter_enable" : 0,
					"patching_rect" : [ 1730.0, 635.0, 50.0, 22.0 ]
				}

			}
, 			{
				"box" : 				{
					"id" : "obj-41",
					"maxclass" : "newobj",
					"numinlets" : 6,
					"numoutlets" : 1,
					"outlettype" : [ "" ],
					"patching_rect" : [ 1681.0, 589.0, 103.0, 22.0 ],
					"text" : "scale 0 1023 0. 1."
				}

			}
, 			{
				"box" : 				{
					"format" : 6,
					"id" : "obj-34",
					"maxclass" : "flonum",
					"numinlets" : 1,
					"numoutlets" : 2,
					"outlettype" : [ "", "bang" ],
					"parameter_enable" : 0,
					"patching_rect" : [ 1554.0, 635.0, 50.0, 22.0 ]
				}

			}
, 			{
				"box" : 				{
					"id" : "obj-24",
					"maxclass" : "newobj",
					"numinlets" : 6,
					"numoutlets" : 1,
					"outlettype" : [ "" ],
					"patching_rect" : [ 1554.0, 596.0, 103.0, 22.0 ],
					"text" : "scale 0 1023 0. 1."
				}

			}
, 			{
				"box" : 				{
					"id" : "obj-17",
					"maxclass" : "newobj",
					"numinlets" : 1,
					"numoutlets" : 0,
					"patching_rect" : [ 1741.0, 261.0, 32.0, 22.0 ],
					"text" : "print"
				}

			}
, 			{
				"box" : 				{
					"id" : "obj-30",
					"maxclass" : "number",
					"numinlets" : 1,
					"numoutlets" : 2,
					"outlettype" : [ "", "bang" ],
					"parameter_enable" : 0,
					"patching_rect" : [ 1854.0, 508.0, 50.0, 22.0 ],
					"presentation" : 1,
					"presentation_rect" : [ 510.126575589179993, 222.222239971160889, 50.0, 22.0 ]
				}

			}
, 			{
				"box" : 				{
					"id" : "obj-26",
					"maxclass" : "number",
					"numinlets" : 1,
					"numoutlets" : 2,
					"outlettype" : [ "", "bang" ],
					"parameter_enable" : 0,
					"patching_rect" : [ 1768.0, 508.0, 50.0, 22.0 ],
					"presentation" : 1,
					"presentation_rect" : [ 440.740775942802429, 222.222239971160889, 50.0, 22.0 ]
				}

			}
, 			{
				"box" : 				{
					"id" : "obj-23",
					"maxclass" : "number",
					"numinlets" : 1,
					"numoutlets" : 2,
					"outlettype" : [ "", "bang" ],
					"parameter_enable" : 0,
					"patching_rect" : [ 1691.0, 508.0, 50.0, 22.0 ],
					"presentation" : 1,
					"presentation_rect" : [ 365.432127952575684, 222.222239971160889, 50.0, 22.0 ]
				}

			}
, 			{
				"box" : 				{
					"id" : "obj-11",
					"maxclass" : "number",
					"numinlets" : 1,
					"numoutlets" : 2,
					"outlettype" : [ "", "bang" ],
					"parameter_enable" : 0,
					"patching_rect" : [ 1614.0, 508.0, 50.0, 22.0 ],
					"presentation" : 1,
					"presentation_rect" : [ 292.405059456825256, 222.222239971160889, 50.0, 22.0 ]
				}

			}
, 			{
				"box" : 				{
					"id" : "obj-12",
					"maxclass" : "number",
					"numinlets" : 1,
					"numoutlets" : 2,
					"outlettype" : [ "", "bang" ],
					"parameter_enable" : 0,
					"patching_rect" : [ 1543.0, 508.0, 50.0, 22.0 ],
					"presentation" : 1,
					"presentation_rect" : [ 216.049399971961975, 222.222239971160889, 50.0, 22.0 ]
				}

			}
, 			{
				"box" : 				{
					"id" : "obj-82",
					"maxclass" : "newobj",
					"numinlets" : 2,
					"numoutlets" : 1,
					"outlettype" : [ "bang" ],
					"patching_rect" : [ 1470.0, 140.0, 49.0, 22.0 ],
					"text" : "metro 2"
				}

			}
, 			{
				"box" : 				{
					"id" : "obj-81",
					"maxclass" : "number",
					"numinlets" : 1,
					"numoutlets" : 2,
					"outlettype" : [ "", "bang" ],
					"parameter_enable" : 0,
					"patching_rect" : [ 1476.0, 508.0, 50.0, 22.0 ],
					"presentation" : 1,
					"presentation_rect" : [ 149.382727980613708, 222.222239971160889, 50.0, 22.0 ]
				}

			}
, 			{
				"box" : 				{
					"id" : "obj-49",
					"maxclass" : "newobj",
					"numinlets" : 1,
					"numoutlets" : 6,
					"outlettype" : [ "int", "int", "int", "int", "int", "int" ],
					"patching_rect" : [ 1543.0, 416.0, 83.0, 22.0 ],
					"text" : "unpack i i i i i i"
				}

			}
, 			{
				"box" : 				{
					"id" : "obj-84",
					"maxclass" : "newobj",
					"numinlets" : 1,
					"numoutlets" : 1,
					"outlettype" : [ "" ],
					"patching_rect" : [ 1543.0, 374.0, 76.0, 22.0 ],
					"text" : "fromsymbol"
				}

			}
, 			{
				"box" : 				{
					"id" : "obj-85",
					"maxclass" : "newobj",
					"numinlets" : 3,
					"numoutlets" : 1,
					"outlettype" : [ "int" ],
					"patching_rect" : [ 1543.0, 325.0, 40.0, 22.0 ],
					"text" : "itoa"
				}

			}
, 			{
				"box" : 				{
					"id" : "obj-86",
					"maxclass" : "newobj",
					"numinlets" : 2,
					"numoutlets" : 2,
					"outlettype" : [ "", "" ],
					"patching_rect" : [ 1543.0, 279.0, 80.0, 22.0 ],
					"text" : "zl group 100"
				}

			}
, 			{
				"box" : 				{
					"id" : "obj-87",
					"maxclass" : "newobj",
					"numinlets" : 3,
					"numoutlets" : 3,
					"outlettype" : [ "bang", "bang", "" ],
					"patching_rect" : [ 1625.0, 212.0, 61.0, 22.0 ],
					"text" : "sel 13 10"
				}

			}
, 			{
				"box" : 				{
					"id" : "obj-35",
					"maxclass" : "toggle",
					"numinlets" : 1,
					"numoutlets" : 1,
					"outlettype" : [ "int" ],
					"parameter_enable" : 0,
					"patching_rect" : [ 1470.0, 63.0, 24.0, 24.0 ],
					"presentation" : 1,
					"presentation_rect" : [ 93.827167987823486, 222.222239971160889, 24.0, 24.0 ]
				}

			}
, 			{
				"box" : 				{
					"bubble" : 1,
					"fontname" : "Arial",
					"fontsize" : 13.0,
					"id" : "obj-29",
					"linecount" : 2,
					"maxclass" : "comment",
					"numinlets" : 1,
					"numoutlets" : 0,
					"patching_rect" : [ 1536.0, 43.0, 160.0, 40.0 ],
					"text" : "set/report use of DTR (important turn on)"
				}

			}
, 			{
				"box" : 				{
					"fontname" : "Arial",
					"fontsize" : 13.0,
					"id" : "obj-13",
					"maxclass" : "message",
					"numinlets" : 2,
					"numoutlets" : 1,
					"outlettype" : [ "" ],
					"patching_rect" : [ 1562.0, 94.0, 45.0, 23.0 ],
					"text" : "getdtr"
				}

			}
, 			{
				"box" : 				{
					"fontname" : "Arial",
					"fontsize" : 13.0,
					"id" : "obj-14",
					"maxclass" : "message",
					"numinlets" : 2,
					"numoutlets" : 1,
					"outlettype" : [ "" ],
					"patching_rect" : [ 1513.0, 94.0, 45.0, 23.0 ],
					"text" : "dtr $1"
				}

			}
, 			{
				"box" : 				{
					"fontname" : "Arial",
					"fontsize" : 13.0,
					"id" : "obj-39",
					"maxclass" : "message",
					"numinlets" : 2,
					"numoutlets" : 1,
					"outlettype" : [ "" ],
					"patching_rect" : [ 1702.0, 94.0, 37.0, 23.0 ],
					"text" : "print"
				}

			}
, 			{
				"box" : 				{
					"fontname" : "Arial",
					"fontsize" : 13.0,
					"id" : "obj-16",
					"maxclass" : "newobj",
					"numinlets" : 1,
					"numoutlets" : 2,
					"outlettype" : [ "int", "" ],
					"patching_rect" : [ 1625.0, 172.0, 82.0, 23.0 ],
					"text" : "serial c 9600"
				}

			}
, 			{
				"box" : 				{
					"basictuning" : 440,
					"data" : 					{
						"clips" : [ 							{
								"absolutepath" : "555 OSC Core Freestyle (128).wav",
								"filename" : "555 OSC Core Freestyle (128).wav",
								"filekind" : "audiofile",
								"id" : "u204003625",
								"loop" : 0,
								"content_state" : 								{
									"loop" : 0
								}

							}
 ]
					}
,
					"followglobaltempo" : 0,
					"formantcorrection" : 0,
					"id" : "obj-3",
					"maxclass" : "playlist~",
					"mode" : "basic",
					"numinlets" : 1,
					"numoutlets" : 5,
					"originallength" : [ 0.0, "ticks" ],
					"originaltempo" : 120.0,
					"outlettype" : [ "signal", "signal", "signal", "", "dictionary" ],
					"parameter_enable" : 0,
					"patching_rect" : [ 544.0, 75.0, 150.0, 30.0 ],
					"pitchcorrection" : 0,
					"presentation" : 1,
					"presentation_rect" : [ 51.851855993270874, 27.16049599647522, 233.333344459533691, 30.555557012557983 ],
					"quality" : "basic",
					"timestretch" : [ 0 ]
				}

			}
, 			{
				"box" : 				{
					"annotation" : "## Change a video's brightness/contrast/saturation ##",
					"bgmode" : 1,
					"border" : 0,
					"clickthrough" : 0,
					"enablehscroll" : 0,
					"enablevscroll" : 0,
					"id" : "obj-76",
					"lockeddragscroll" : 0,
					"lockedsize" : 0,
					"maxclass" : "bpatcher",
					"name" : "vz.brcosr.maxpat",
					"numinlets" : 7,
					"numoutlets" : 1,
					"offset" : [ 0.0, 0.0 ],
					"outlettype" : [ "jit_gl_texture" ],
					"patching_rect" : [ 601.0, 1194.0, 210.975614786148071, 126.82927131652832 ],
					"prototypename" : "pixl",
					"varname" : "brcosr[1]",
					"viewvisibility" : 1
				}

			}
, 			{
				"box" : 				{
					"annotation" : "## Convert a video into a line drawing ##",
					"bgmode" : 1,
					"border" : 0,
					"clickthrough" : 0,
					"enablehscroll" : 0,
					"enablevscroll" : 0,
					"id" : "obj-15",
					"lockeddragscroll" : 0,
					"lockedsize" : 0,
					"maxclass" : "bpatcher",
					"name" : "vz.sketchr.maxpat",
					"numinlets" : 4,
					"numoutlets" : 1,
					"offset" : [ 0.0, 0.0 ],
					"outlettype" : [ "jit_gl_texture" ],
					"patching_rect" : [ 942.0, 998.0, 177.0, 130.0 ],
					"prototypename" : "pixl",
					"varname" : "sketchr",
					"viewvisibility" : 1
				}

			}
, 			{
				"box" : 				{
					"annotation" : "## Perform Photoshop image-style video mixing ##",
					"bgmode" : 0,
					"border" : 0,
					"clickthrough" : 0,
					"enablehscroll" : 0,
					"enablevscroll" : 0,
					"id" : "obj-1",
					"lockeddragscroll" : 0,
					"lockedsize" : 0,
					"maxclass" : "bpatcher",
					"name" : "vz.modemixr.maxpat",
					"numinlets" : 4,
					"numoutlets" : 1,
					"offset" : [ 0.0, 0.0 ],
					"outlettype" : [ "jit_gl_texture" ],
					"patching_rect" : [ 316.585373878479004, 990.0, 178.0, 130.0 ],
					"presentation" : 1,
					"presentation_rect" : [ 53.086423993110657, 566.666711926460266, 178.0, 130.0 ],
					"varname" : "vz.modemixr",
					"viewvisibility" : 1
				}

			}
, 			{
				"box" : 				{
					"annotation" : "## A Basis Function-based video generator ##",
					"bgmode" : 1,
					"border" : 0,
					"clickthrough" : 0,
					"enablehscroll" : 0,
					"enablevscroll" : 0,
					"id" : "obj-40",
					"lockeddragscroll" : 0,
					"lockedsize" : 0,
					"maxclass" : "bpatcher",
					"name" : "vz.bfgener8r.maxpat",
					"numinlets" : 12,
					"numoutlets" : 1,
					"offset" : [ 0.0, 0.0 ],
					"outlettype" : [ "jit_gl_texture" ],
					"patching_rect" : [ 645.333352565765381, 717.333354711532593, 268.0, 234.0 ],
					"presentation" : 1,
					"presentation_rect" : [ 54.320991992950439, 282.716071963310242, 268.0, 234.0 ],
					"prototypename" : "pixl",
					"varname" : "bfgener8r[2]",
					"viewvisibility" : 1
				}

			}
, 			{
				"box" : 				{
					"annotation" : "## Change a video's brightness/contrast/saturation ##",
					"bgmode" : 1,
					"border" : 0,
					"clickthrough" : 0,
					"enablehscroll" : 0,
					"enablevscroll" : 0,
					"id" : "obj-38",
					"lockeddragscroll" : 0,
					"lockedsize" : 0,
					"maxclass" : "bpatcher",
					"name" : "vz.brcosr.maxpat",
					"numinlets" : 7,
					"numoutlets" : 1,
					"offset" : [ 0.0, 0.0 ],
					"outlettype" : [ "jit_gl_texture" ],
					"patching_rect" : [ 312.0, 1172.0, 208.0, 130.0 ],
					"prototypename" : "pixl",
					"varname" : "brcosr",
					"viewvisibility" : 1
				}

			}
, 			{
				"box" : 				{
					"annotation" : "## A Basis Function-based video generator ##",
					"bgmode" : 1,
					"border" : 0,
					"clickthrough" : 0,
					"enablehscroll" : 0,
					"enablevscroll" : 0,
					"id" : "obj-33",
					"lockeddragscroll" : 0,
					"lockedsize" : 0,
					"maxclass" : "bpatcher",
					"name" : "vz.bfgener8r.maxpat",
					"numinlets" : 12,
					"numoutlets" : 1,
					"offset" : [ 0.0, 0.0 ],
					"outlettype" : [ "jit_gl_texture" ],
					"patching_rect" : [ 344.642853856086731, 712.499993205070496, 268.0, 234.0 ],
					"presentation" : 1,
					"presentation_rect" : [ 344.444471955299377, 282.716071963310242, 268.0, 234.0 ],
					"prototypename" : "pixl",
					"varname" : "bfgener8r",
					"viewvisibility" : 1
				}

			}
, 			{
				"box" : 				{
					"annotation" : "## A starting point for controlling Vizzie patches ##",
					"bgmode" : 1,
					"border" : 0,
					"clickthrough" : 0,
					"enablehscroll" : 0,
					"enablevscroll" : 0,
					"id" : "obj-10",
					"lockeddragscroll" : 0,
					"lockedsize" : 0,
					"maxclass" : "bpatcher",
					"name" : "vz.startr.maxpat",
					"numinlets" : 2,
					"numoutlets" : 0,
					"offset" : [ 0.0, 0.0 ],
					"patching_rect" : [ 119.0, 302.0, 177.0, 134.0 ],
					"prototypename" : "pixl",
					"varname" : "startr",
					"viewvisibility" : 1
				}

			}
, 			{
				"box" : 				{
					"bgmode" : 0,
					"border" : 0,
					"clickthrough" : 0,
					"enablehscroll" : 0,
					"enablevscroll" : 0,
					"extract" : 1,
					"id" : "obj-5",
					"lockeddragscroll" : 0,
					"lockedsize" : 0,
					"maxclass" : "bpatcher",
					"name" : "bp.Stereo.maxpat",
					"numinlets" : 2,
					"numoutlets" : 0,
					"offset" : [ 0.0, 0.0 ],
					"patching_rect" : [ 755.0, 272.0, 148.0, 116.0 ],
					"presentation" : 1,
					"presentation_rect" : [ 51.851855993270874, 66.666671991348267, 233.333344459533691, 116.666672229766846 ],
					"varname" : "bp.Stereo",
					"viewvisibility" : 1
				}

			}
, 			{
				"box" : 				{
					"annotation" : "## VIZZIE video projector interface ##",
					"bgmode" : 1,
					"border" : 0,
					"clickthrough" : 0,
					"enablehscroll" : 0,
					"enablevscroll" : 0,
					"id" : "obj-19",
					"lockeddragscroll" : 0,
					"lockedsize" : 0,
					"maxclass" : "bpatcher",
					"name" : "vz.projectr.maxpat",
					"numinlets" : 4,
					"numoutlets" : 1,
					"offset" : [ 0.0, 0.0 ],
					"outlettype" : [ "" ],
					"patching_rect" : [ 525.609768629074097, 1352.439056634902954, 168.0, 108.0 ],
					"presentation" : 1,
					"presentation_rect" : [ 430.864231944084167, 566.666711926460266, 180.246927976608276, 130.0 ],
					"prototypename" : "pixl",
					"varname" : "projectr",
					"viewvisibility" : 1
				}

			}
, 			{
				"box" : 				{
					"angle" : 270.0,
					"grad1" : [ 0.368627450980392, 0.368627450980392, 0.368627450980392, 1.0 ],
					"grad2" : [ 0.2, 0.2, 0.2, 1.0 ],
					"id" : "obj-66",
					"maxclass" : "panel",
					"mode" : 1,
					"numinlets" : 1,
					"numoutlets" : 0,
					"patching_rect" : [ 266.666687965393066, 609.876591920852661, 128.0, 128.0 ],
					"presentation" : 1,
					"presentation_rect" : [ 34.567903995513916, 9.876543998718262, 602.469183921813965, 706.172895908355713 ],
					"proportion" : 0.5
				}

			}
 ],
		"lines" : [ 			{
				"patchline" : 				{
					"destination" : [ "obj-38", 0 ],
					"source" : [ "obj-1", 0 ]
				}

			}
, 			{
				"patchline" : 				{
					"destination" : [ "obj-64", 0 ],
					"source" : [ "obj-11", 0 ]
				}

			}
, 			{
				"patchline" : 				{
					"destination" : [ "obj-33", 1 ],
					"order" : 1,
					"source" : [ "obj-12", 0 ]
				}

			}
, 			{
				"patchline" : 				{
					"destination" : [ "obj-40", 1 ],
					"order" : 0,
					"source" : [ "obj-12", 0 ]
				}

			}
, 			{
				"patchline" : 				{
					"destination" : [ "obj-16", 0 ],
					"midpoints" : [ 1571.5, 192.04761278629303, 1634.5, 192.04761278629303 ],
					"source" : [ "obj-13", 0 ]
				}

			}
, 			{
				"patchline" : 				{
					"destination" : [ "obj-16", 0 ],
					"midpoints" : [ 1522.5, 192.04761278629303, 1634.5, 192.04761278629303 ],
					"source" : [ "obj-14", 0 ]
				}

			}
, 			{
				"patchline" : 				{
					"destination" : [ "obj-76", 0 ],
					"source" : [ "obj-15", 0 ]
				}

			}
, 			{
				"patchline" : 				{
					"destination" : [ "obj-87", 0 ],
					"source" : [ "obj-16", 0 ]
				}

			}
, 			{
				"patchline" : 				{
					"destination" : [ "obj-28", 0 ],
					"source" : [ "obj-21", 3 ]
				}

			}
, 			{
				"patchline" : 				{
					"destination" : [ "obj-33", 8 ],
					"order" : 0,
					"source" : [ "obj-21", 0 ]
				}

			}
, 			{
				"patchline" : 				{
					"destination" : [ "obj-33", 2 ],
					"order" : 2,
					"source" : [ "obj-21", 0 ]
				}

			}
, 			{
				"patchline" : 				{
					"destination" : [ "obj-40", 2 ],
					"order" : 1,
					"source" : [ "obj-21", 0 ]
				}

			}
, 			{
				"patchline" : 				{
					"destination" : [ "obj-45", 0 ],
					"source" : [ "obj-21", 2 ]
				}

			}
, 			{
				"patchline" : 				{
					"destination" : [ "obj-41", 0 ],
					"source" : [ "obj-23", 0 ]
				}

			}
, 			{
				"patchline" : 				{
					"destination" : [ "obj-34", 0 ],
					"source" : [ "obj-24", 0 ]
				}

			}
, 			{
				"patchline" : 				{
					"destination" : [ "obj-24", 0 ],
					"source" : [ "obj-26", 0 ]
				}

			}
, 			{
				"patchline" : 				{
					"destination" : [ "obj-43", 0 ],
					"source" : [ "obj-28", 0 ]
				}

			}
, 			{
				"patchline" : 				{
					"destination" : [ "obj-21", 0 ],
					"order" : 1,
					"source" : [ "obj-3", 0 ]
				}

			}
, 			{
				"patchline" : 				{
					"destination" : [ "obj-5", 1 ],
					"order" : 0,
					"source" : [ "obj-3", 0 ]
				}

			}
, 			{
				"patchline" : 				{
					"destination" : [ "obj-5", 0 ],
					"order" : 2,
					"source" : [ "obj-3", 0 ]
				}

			}
, 			{
				"patchline" : 				{
					"destination" : [ "obj-9", 0 ],
					"source" : [ "obj-30", 0 ]
				}

			}
, 			{
				"patchline" : 				{
					"destination" : [ "obj-1", 0 ],
					"source" : [ "obj-33", 0 ]
				}

			}
, 			{
				"patchline" : 				{
					"destination" : [ "obj-15", 2 ],
					"source" : [ "obj-34", 0 ]
				}

			}
, 			{
				"patchline" : 				{
					"destination" : [ "obj-14", 0 ],
					"order" : 0,
					"source" : [ "obj-35", 0 ]
				}

			}
, 			{
				"patchline" : 				{
					"destination" : [ "obj-82", 0 ],
					"order" : 1,
					"source" : [ "obj-35", 0 ]
				}

			}
, 			{
				"patchline" : 				{
					"destination" : [ "obj-15", 0 ],
					"source" : [ "obj-38", 0 ]
				}

			}
, 			{
				"patchline" : 				{
					"destination" : [ "obj-16", 0 ],
					"midpoints" : [ 1711.5, 176.04761278629303, 1634.5, 176.04761278629303 ],
					"source" : [ "obj-39", 0 ]
				}

			}
, 			{
				"patchline" : 				{
					"destination" : [ "obj-1", 1 ],
					"source" : [ "obj-40", 0 ]
				}

			}
, 			{
				"patchline" : 				{
					"destination" : [ "obj-42", 0 ],
					"source" : [ "obj-41", 0 ]
				}

			}
, 			{
				"patchline" : 				{
					"destination" : [ "obj-15", 1 ],
					"source" : [ "obj-42", 0 ]
				}

			}
, 			{
				"patchline" : 				{
					"destination" : [ "obj-33", 3 ],
					"order" : 2,
					"source" : [ "obj-43", 0 ]
				}

			}
, 			{
				"patchline" : 				{
					"destination" : [ "obj-40", 8 ],
					"order" : 0,
					"source" : [ "obj-43", 0 ]
				}

			}
, 			{
				"patchline" : 				{
					"destination" : [ "obj-40", 3 ],
					"order" : 1,
					"source" : [ "obj-43", 0 ]
				}

			}
, 			{
				"patchline" : 				{
					"destination" : [ "obj-47", 0 ],
					"source" : [ "obj-45", 0 ]
				}

			}
, 			{
				"patchline" : 				{
					"destination" : [ "obj-50", 0 ],
					"source" : [ "obj-47", 0 ]
				}

			}
, 			{
				"patchline" : 				{
					"destination" : [ "obj-11", 0 ],
					"source" : [ "obj-49", 2 ]
				}

			}
, 			{
				"patchline" : 				{
					"destination" : [ "obj-12", 0 ],
					"source" : [ "obj-49", 1 ]
				}

			}
, 			{
				"patchline" : 				{
					"destination" : [ "obj-23", 0 ],
					"source" : [ "obj-49", 3 ]
				}

			}
, 			{
				"patchline" : 				{
					"destination" : [ "obj-26", 0 ],
					"source" : [ "obj-49", 4 ]
				}

			}
, 			{
				"patchline" : 				{
					"destination" : [ "obj-30", 0 ],
					"source" : [ "obj-49", 5 ]
				}

			}
, 			{
				"patchline" : 				{
					"destination" : [ "obj-81", 0 ],
					"source" : [ "obj-49", 0 ]
				}

			}
, 			{
				"patchline" : 				{
					"destination" : [ "obj-1", 3 ],
					"order" : 11,
					"source" : [ "obj-54", 0 ]
				}

			}
, 			{
				"patchline" : 				{
					"destination" : [ "obj-1", 2 ],
					"order" : 20,
					"source" : [ "obj-54", 0 ]
				}

			}
, 			{
				"patchline" : 				{
					"destination" : [ "obj-15", 3 ],
					"order" : 14,
					"source" : [ "obj-54", 0 ]
				}

			}
, 			{
				"patchline" : 				{
					"destination" : [ "obj-15", 2 ],
					"order" : 21,
					"source" : [ "obj-54", 0 ]
				}

			}
, 			{
				"patchline" : 				{
					"destination" : [ "obj-15", 1 ],
					"order" : 29,
					"source" : [ "obj-54", 0 ]
				}

			}
, 			{
				"patchline" : 				{
					"destination" : [ "obj-21", 3 ],
					"order" : 0,
					"source" : [ "obj-54", 0 ]
				}

			}
, 			{
				"patchline" : 				{
					"destination" : [ "obj-21", 2 ],
					"order" : 8,
					"source" : [ "obj-54", 0 ]
				}

			}
, 			{
				"patchline" : 				{
					"destination" : [ "obj-21", 1 ],
					"order" : 23,
					"source" : [ "obj-54", 0 ]
				}

			}
, 			{
				"patchline" : 				{
					"destination" : [ "obj-33", 11 ],
					"order" : 2,
					"source" : [ "obj-54", 0 ]
				}

			}
, 			{
				"patchline" : 				{
					"destination" : [ "obj-33", 10 ],
					"order" : 4,
					"source" : [ "obj-54", 0 ]
				}

			}
, 			{
				"patchline" : 				{
					"destination" : [ "obj-33", 9 ],
					"order" : 6,
					"source" : [ "obj-54", 0 ]
				}

			}
, 			{
				"patchline" : 				{
					"destination" : [ "obj-33", 7 ],
					"order" : 13,
					"source" : [ "obj-54", 0 ]
				}

			}
, 			{
				"patchline" : 				{
					"destination" : [ "obj-33", 6 ],
					"order" : 16,
					"source" : [ "obj-54", 0 ]
				}

			}
, 			{
				"patchline" : 				{
					"destination" : [ "obj-33", 5 ],
					"order" : 19,
					"source" : [ "obj-54", 0 ]
				}

			}
, 			{
				"patchline" : 				{
					"destination" : [ "obj-33", 4 ],
					"order" : 25,
					"source" : [ "obj-54", 0 ]
				}

			}
, 			{
				"patchline" : 				{
					"destination" : [ "obj-33", 3 ],
					"order" : 27,
					"source" : [ "obj-54", 0 ]
				}

			}
, 			{
				"patchline" : 				{
					"destination" : [ "obj-33", 2 ],
					"order" : 31,
					"source" : [ "obj-54", 0 ]
				}

			}
, 			{
				"patchline" : 				{
					"destination" : [ "obj-33", 1 ],
					"order" : 34,
					"source" : [ "obj-54", 0 ]
				}

			}
, 			{
				"patchline" : 				{
					"destination" : [ "obj-33", 0 ],
					"order" : 36,
					"source" : [ "obj-54", 0 ]
				}

			}
, 			{
				"patchline" : 				{
					"destination" : [ "obj-40", 11 ],
					"order" : 1,
					"source" : [ "obj-54", 0 ]
				}

			}
, 			{
				"patchline" : 				{
					"destination" : [ "obj-40", 10 ],
					"order" : 3,
					"source" : [ "obj-54", 0 ]
				}

			}
, 			{
				"patchline" : 				{
					"destination" : [ "obj-40", 9 ],
					"order" : 5,
					"source" : [ "obj-54", 0 ]
				}

			}
, 			{
				"patchline" : 				{
					"destination" : [ "obj-40", 8 ],
					"order" : 9,
					"source" : [ "obj-54", 0 ]
				}

			}
, 			{
				"patchline" : 				{
					"destination" : [ "obj-40", 7 ],
					"order" : 12,
					"source" : [ "obj-54", 0 ]
				}

			}
, 			{
				"patchline" : 				{
					"destination" : [ "obj-40", 6 ],
					"order" : 15,
					"source" : [ "obj-54", 0 ]
				}

			}
, 			{
				"patchline" : 				{
					"destination" : [ "obj-40", 5 ],
					"order" : 18,
					"source" : [ "obj-54", 0 ]
				}

			}
, 			{
				"patchline" : 				{
					"destination" : [ "obj-40", 4 ],
					"order" : 24,
					"source" : [ "obj-54", 0 ]
				}

			}
, 			{
				"patchline" : 				{
					"destination" : [ "obj-40", 3 ],
					"order" : 26,
					"source" : [ "obj-54", 0 ]
				}

			}
, 			{
				"patchline" : 				{
					"destination" : [ "obj-40", 2 ],
					"order" : 30,
					"source" : [ "obj-54", 0 ]
				}

			}
, 			{
				"patchline" : 				{
					"destination" : [ "obj-40", 1 ],
					"order" : 33,
					"source" : [ "obj-54", 0 ]
				}

			}
, 			{
				"patchline" : 				{
					"destination" : [ "obj-40", 0 ],
					"order" : 35,
					"source" : [ "obj-54", 0 ]
				}

			}
, 			{
				"patchline" : 				{
					"destination" : [ "obj-76", 6 ],
					"order" : 7,
					"source" : [ "obj-54", 0 ]
				}

			}
, 			{
				"patchline" : 				{
					"destination" : [ "obj-76", 5 ],
					"order" : 10,
					"source" : [ "obj-54", 0 ]
				}

			}
, 			{
				"patchline" : 				{
					"destination" : [ "obj-76", 4 ],
					"order" : 17,
					"source" : [ "obj-54", 0 ]
				}

			}
, 			{
				"patchline" : 				{
					"destination" : [ "obj-76", 3 ],
					"order" : 22,
					"source" : [ "obj-54", 0 ]
				}

			}
, 			{
				"patchline" : 				{
					"destination" : [ "obj-76", 2 ],
					"order" : 28,
					"source" : [ "obj-54", 0 ]
				}

			}
, 			{
				"patchline" : 				{
					"destination" : [ "obj-76", 1 ],
					"order" : 32,
					"source" : [ "obj-54", 0 ]
				}

			}
, 			{
				"patchline" : 				{
					"destination" : [ "obj-1", 3 ],
					"source" : [ "obj-6", 0 ]
				}

			}
, 			{
				"patchline" : 				{
					"destination" : [ "obj-19", 0 ],
					"source" : [ "obj-63", 0 ]
				}

			}
, 			{
				"patchline" : 				{
					"destination" : [ "obj-63", 2 ],
					"source" : [ "obj-64", 0 ]
				}

			}
, 			{
				"patchline" : 				{
					"destination" : [ "obj-63", 0 ],
					"source" : [ "obj-76", 0 ]
				}

			}
, 			{
				"patchline" : 				{
					"destination" : [ "obj-15", 3 ],
					"source" : [ "obj-81", 0 ]
				}

			}
, 			{
				"patchline" : 				{
					"destination" : [ "obj-16", 0 ],
					"source" : [ "obj-82", 0 ]
				}

			}
, 			{
				"patchline" : 				{
					"destination" : [ "obj-49", 0 ],
					"source" : [ "obj-84", 0 ]
				}

			}
, 			{
				"patchline" : 				{
					"destination" : [ "obj-17", 0 ],
					"order" : 0,
					"source" : [ "obj-85", 0 ]
				}

			}
, 			{
				"patchline" : 				{
					"destination" : [ "obj-84", 0 ],
					"order" : 1,
					"source" : [ "obj-85", 0 ]
				}

			}
, 			{
				"patchline" : 				{
					"destination" : [ "obj-85", 0 ],
					"source" : [ "obj-86", 0 ]
				}

			}
, 			{
				"patchline" : 				{
					"destination" : [ "obj-86", 0 ],
					"source" : [ "obj-87", 2 ]
				}

			}
, 			{
				"patchline" : 				{
					"destination" : [ "obj-86", 0 ],
					"source" : [ "obj-87", 0 ]
				}

			}
, 			{
				"patchline" : 				{
					"destination" : [ "obj-6", 0 ],
					"source" : [ "obj-9", 0 ]
				}

			}
 ],
		"parameters" : 		{
			"obj-10::obj-1" : [ "Toggle_start", "Toggle_start", 0 ],
			"obj-10::obj-105" : [ "Toggle_resync", "Toggle_resync", 0 ],
			"obj-10::obj-11" : [ "pictctrl[3]", "pictctrl[1]", 0 ],
			"obj-10::obj-16" : [ "textbutton", "textbutton", 0 ],
			"obj-10::obj-278" : [ "textbutton[2]", "textbutton[1]", 1 ],
			"obj-10::obj-3" : [ "umenu[3]", "umenu", 0 ],
			"obj-10::obj-46" : [ "pictctrl[10]", "pictctrl[1]", 0 ],
			"obj-15::obj-1" : [ "range[6]", "range", 0 ],
			"obj-15::obj-24::obj-23" : [ "gswitch2[4]", "gswitch2", 0 ],
			"obj-15::obj-34" : [ "pictctrl[63]", "pictctrl[1]", 0 ],
			"obj-15::obj-37" : [ "pictctrl[64]", "pictctrl[1]", 0 ],
			"obj-15::obj-50" : [ "Contrast[1]", "Contrast", 0 ],
			"obj-15::obj-52" : [ "Draw mode", "Draw mode", 0 ],
			"obj-15::obj-71" : [ "pictctrl[6]", "pictctrl[1]", 0 ],
			"obj-15::obj-72" : [ "Thresh", "Thresh", 0 ],
			"obj-19::obj-12" : [ "Fullscreen", "Fullscreen", 0 ],
			"obj-19::obj-16" : [ "Toggle display", "Toggle display", 0 ],
			"obj-19::obj-1::obj-23" : [ "gswitch2[2]", "gswitch2", 0 ],
			"obj-19::obj-2" : [ "pictctrl[2]", "pictctrl[1]", 0 ],
			"obj-19::obj-3" : [ "toggle", "toggle", 0 ],
			"obj-19::obj-41" : [ "pictctrl[7]", "pictctrl[1]", 0 ],
			"obj-19::obj-50" : [ "pictctrl[1]", "pictctrl[1]", 0 ],
			"obj-19::obj-6" : [ "live.toggle[1]", "live.toggle", 0 ],
			"obj-1::obj-29" : [ "range[11]", "range", 0 ],
			"obj-1::obj-31::obj-23" : [ "gswitch2[3]", "gswitch2", 0 ],
			"obj-1::obj-32::obj-23" : [ "gswitch2[9]", "gswitch2", 0 ],
			"obj-1::obj-36" : [ "pictctrl[5]", "pictctrl[1]", 0 ],
			"obj-1::obj-37" : [ "umenu[5]", "umenu", 0 ],
			"obj-1::obj-38" : [ "mix-amount", "Amount", 0 ],
			"obj-1::obj-51" : [ "pictctrl[70]", "pictctrl[1]", 0 ],
			"obj-21::obj-10" : [ "pictctrl[114]", "pictctrl[1]", 0 ],
			"obj-21::obj-109" : [ "range[2]", "range", 0 ],
			"obj-21::obj-16" : [ "pictctrl[36]", "pictctrl[1]", 0 ],
			"obj-21::obj-22" : [ "pictctrl[71]", "pictctrl[2]", 0 ],
			"obj-21::obj-29" : [ "pictctrl[117]", "pictctrl[3]", 0 ],
			"obj-21::obj-32" : [ "pictctrl[116]", "pictctrl[1]", 0 ],
			"obj-21::obj-42" : [ "pictctrl[115]", "pictctrl[1]", 0 ],
			"obj-21::obj-48" : [ "MH-H boundary[1]", "MH-H boundary", 0 ],
			"obj-21::obj-51" : [ "pictctrl[40]", "pictctrl[1]", 0 ],
			"obj-21::obj-52" : [ "LM-MH boundary[1]", "LM-MH boundary", 0 ],
			"obj-21::obj-55" : [ "L-LM boundary[1]", "L-LM boundary", 0 ],
			"obj-33::obj-100" : [ "Speed", "Speed", 1 ],
			"obj-33::obj-104" : [ "pictctrl[148]", "pictctrl[1]", 0 ],
			"obj-33::obj-15" : [ "pictctrl[34]", "pictctrl[1]", 0 ],
			"obj-33::obj-17" : [ "pictctrl[31]", "pictctrl[1]", 0 ],
			"obj-33::obj-21" : [ "Colorize", "Colorize", 0 ],
			"obj-33::obj-23" : [ "pictctrl[33]", "pictctrl[1]", 0 ],
			"obj-33::obj-26" : [ "pictctrl[32]", "pictctrl[1]", 0 ],
			"obj-33::obj-278" : [ "textbutton[4]", "textbutton[1]", 0 ],
			"obj-33::obj-37" : [ "pictctrl[28]", "pictctrl[1]", 0 ],
			"obj-33::obj-46" : [ "pictctrl[27]", "pictctrl[1]", 0 ],
			"obj-33::obj-5" : [ "Function", "Function", 0 ],
			"obj-33::obj-55" : [ "Bcolorize", "Bcolorize", 0 ],
			"obj-33::obj-56" : [ "Gcolorize", "Gcolorize", 0 ],
			"obj-33::obj-57" : [ "Rcolorize", "Rcolorize", 0 ],
			"obj-33::obj-59" : [ "pictctrl[106]", "pictctrl[1]", 0 ],
			"obj-33::obj-61" : [ "Zoom hi", "Zoom", 1 ],
			"obj-33::obj-63" : [ "Zoom range[2]", "Zoom range", 1 ],
			"obj-33::obj-76" : [ "pictctrl[29]", "pictctrl[1]", 0 ],
			"obj-33::obj-78" : [ "Zoom lo", "Zoom", 1 ],
			"obj-33::obj-8" : [ "pictctrl[30]", "pictctrl[1]", 0 ],
			"obj-33::obj-85" : [ "pictctrl[4]", "pictctrl[1]", 0 ],
			"obj-33::obj-91::obj-10::obj-11" : [ "Jitter[2]", "Jitter", 0 ],
			"obj-33::obj-91::obj-10::obj-19" : [ "Amount", "Amount", 0 ],
			"obj-33::obj-91::obj-11::obj-11" : [ "Jitter[1]", "Jitter", 0 ],
			"obj-33::obj-91::obj-11::obj-18" : [ "Smoothing", "Smoothing", 0 ],
			"obj-33::obj-91::obj-12::obj-23" : [ "Gain[4]", "Gain", 0 ],
			"obj-33::obj-91::obj-12::obj-25" : [ "Offset[3]", "Offset", 0 ],
			"obj-33::obj-91::obj-12::obj-27" : [ "Lacunarity[3]", "Lacunarity", 0 ],
			"obj-33::obj-91::obj-12::obj-31" : [ "H value[3]", "H value", 0 ],
			"obj-33::obj-91::obj-13::obj-11" : [ "Jitter", "Jitter", 0 ],
			"obj-33::obj-91::obj-15::obj-11" : [ "H value[4]", "H value", 0 ],
			"obj-33::obj-91::obj-15::obj-16" : [ "Lacunarity[4]", "Lacunarity", 0 ],
			"obj-33::obj-91::obj-15::obj-18" : [ "Offset[4]", "Offset", 0 ],
			"obj-33::obj-91::obj-15::obj-19" : [ "Gain[5]", "Gain", 0 ],
			"obj-33::obj-91::obj-1::obj-24" : [ "Gain[1]", "Gain", 0 ],
			"obj-33::obj-91::obj-1::obj-26" : [ "Offset", "Offset", 0 ],
			"obj-33::obj-91::obj-1::obj-28" : [ "Lacunarity", "Lacunarity", 0 ],
			"obj-33::obj-91::obj-1::obj-32" : [ "H value", "H value", 0 ],
			"obj-33::obj-91::obj-3::obj-11" : [ "Distortion", "Distortion", 0 ],
			"obj-33::obj-91::obj-4::obj-24" : [ "Gain[2]", "Gain", 0 ],
			"obj-33::obj-91::obj-4::obj-26" : [ "Offset[1]", "Offset", 0 ],
			"obj-33::obj-91::obj-4::obj-28" : [ "Lacunarity[1]", "Lacunarity", 0 ],
			"obj-33::obj-91::obj-4::obj-32" : [ "H value[1]", "H value", 0 ],
			"obj-33::obj-91::obj-5::obj-23" : [ "Gain[3]", "Gain", 0 ],
			"obj-33::obj-91::obj-5::obj-25" : [ "Offset[2]", "Offset", 0 ],
			"obj-33::obj-91::obj-5::obj-27" : [ "Lacunarity[2]", "Lacunarity", 0 ],
			"obj-33::obj-91::obj-5::obj-31" : [ "H value[2]", "H value", 0 ],
			"obj-33::obj-91::obj-6::obj-11" : [ "Jitter[4]", "Jitter", 0 ],
			"obj-33::obj-91::obj-6::obj-24" : [ "X crackle", "X crackle", 0 ],
			"obj-33::obj-91::obj-6::obj-28" : [ "Y crackle", "Y crackle", 0 ],
			"obj-33::obj-91::obj-6::obj-29" : [ "Z crackle", "Z crackle", 0 ],
			"obj-33::obj-91::obj-9::obj-11" : [ "Jitter[3]", "Jitter", 0 ],
			"obj-33::obj-91::obj-9::obj-16" : [ "Shading", "Shading", 0 ],
			"obj-33::obj-96" : [ "pictctrl[35]", "pictctrl[1]", 0 ],
			"obj-38::obj-104" : [ "pictctrl[152]", "pictctrl[1]", 0 ],
			"obj-38::obj-119" : [ "Brightness", "Brightness", 0 ],
			"obj-38::obj-120" : [ "Brightness range", "Brightness range", 1 ],
			"obj-38::obj-121" : [ "Offset[10]", "Brightness", 0 ],
			"obj-38::obj-127" : [ "Contrast", "Contrast", 0 ],
			"obj-38::obj-128" : [ "Contrast range", "Contrast range", 1 ],
			"obj-38::obj-129" : [ "contrast", "Contrast", 0 ],
			"obj-38::obj-140" : [ "Saturation", "Saturation", 0 ],
			"obj-38::obj-141" : [ "Saturation range", "Saturation range", 1 ],
			"obj-38::obj-142" : [ "saturation[1]", "Saturation", 0 ],
			"obj-38::obj-147" : [ "pictctrl[151]", "pictctrl[1]", 0 ],
			"obj-38::obj-148" : [ "pictctrl[153]", "pictctrl[1]", 0 ],
			"obj-38::obj-149" : [ "pictctrl[150]", "pictctrl[1]", 0 ],
			"obj-38::obj-150" : [ "pictctrl[154]", "pictctrl[1]", 0 ],
			"obj-38::obj-151" : [ "pictctrl[149]", "pictctrl[1]", 0 ],
			"obj-38::obj-56::obj-23" : [ "gswitch2[7]", "gswitch2", 0 ],
			"obj-38::obj-6" : [ "range[9]", "range", 0 ],
			"obj-40::obj-100" : [ "Speed[3]", "Speed", 1 ],
			"obj-40::obj-104" : [ "pictctrl[46]", "pictctrl[1]", 0 ],
			"obj-40::obj-15" : [ "pictctrl[59]", "pictctrl[1]", 0 ],
			"obj-40::obj-17" : [ "pictctrl[39]", "pictctrl[1]", 0 ],
			"obj-40::obj-21" : [ "Colorize[2]", "Colorize", 0 ],
			"obj-40::obj-23" : [ "pictctrl[69]", "pictctrl[1]", 0 ],
			"obj-40::obj-26" : [ "pictctrl[37]", "pictctrl[1]", 0 ],
			"obj-40::obj-278" : [ "textbutton[6]", "textbutton[1]", 0 ],
			"obj-40::obj-37" : [ "pictctrl[56]", "pictctrl[1]", 0 ],
			"obj-40::obj-46" : [ "pictctrl[55]", "pictctrl[1]", 0 ],
			"obj-40::obj-5" : [ "Function[2]", "Function", 0 ],
			"obj-40::obj-55" : [ "Bcolorize[2]", "Bcolorize", 0 ],
			"obj-40::obj-56" : [ "Gcolorize[2]", "Gcolorize", 0 ],
			"obj-40::obj-57" : [ "Rcolorize[2]", "Rcolorize", 0 ],
			"obj-40::obj-59" : [ "pictctrl[45]", "pictctrl[1]", 0 ],
			"obj-40::obj-61" : [ "Zoom hi[2]", "Zoom", 1 ],
			"obj-40::obj-63" : [ "Zoom range[4]", "Zoom range", 1 ],
			"obj-40::obj-76" : [ "pictctrl[60]", "pictctrl[1]", 0 ],
			"obj-40::obj-78" : [ "Zoom lo[2]", "Zoom", 1 ],
			"obj-40::obj-8" : [ "pictctrl[58]", "pictctrl[1]", 0 ],
			"obj-40::obj-85" : [ "pictctrl[57]", "pictctrl[1]", 0 ],
			"obj-40::obj-91::obj-10::obj-11" : [ "Jitter[12]", "Jitter", 0 ],
			"obj-40::obj-91::obj-10::obj-19" : [ "Amount[2]", "Amount", 0 ],
			"obj-40::obj-91::obj-11::obj-11" : [ "Jitter[11]", "Jitter", 0 ],
			"obj-40::obj-91::obj-11::obj-18" : [ "Smoothing[2]", "Smoothing", 0 ],
			"obj-40::obj-91::obj-12::obj-23" : [ "Gain[14]", "Gain", 0 ],
			"obj-40::obj-91::obj-12::obj-25" : [ "Offset[14]", "Offset", 0 ],
			"obj-40::obj-91::obj-12::obj-27" : [ "Lacunarity[13]", "Lacunarity", 0 ],
			"obj-40::obj-91::obj-12::obj-31" : [ "H value[13]", "H value", 0 ],
			"obj-40::obj-91::obj-13::obj-11" : [ "Jitter[10]", "Jitter", 0 ],
			"obj-40::obj-91::obj-15::obj-11" : [ "H value[14]", "H value", 0 ],
			"obj-40::obj-91::obj-15::obj-16" : [ "Lacunarity[14]", "Lacunarity", 0 ],
			"obj-40::obj-91::obj-15::obj-18" : [ "Offset[15]", "Offset", 0 ],
			"obj-40::obj-91::obj-15::obj-19" : [ "Gain[15]", "Gain", 0 ],
			"obj-40::obj-91::obj-1::obj-24" : [ "Gain[11]", "Gain", 0 ],
			"obj-40::obj-91::obj-1::obj-26" : [ "Offset[11]", "Offset", 0 ],
			"obj-40::obj-91::obj-1::obj-28" : [ "Lacunarity[10]", "Lacunarity", 0 ],
			"obj-40::obj-91::obj-1::obj-32" : [ "H value[10]", "H value", 0 ],
			"obj-40::obj-91::obj-3::obj-11" : [ "Distortion[2]", "Distortion", 0 ],
			"obj-40::obj-91::obj-4::obj-24" : [ "Gain[12]", "Gain", 0 ],
			"obj-40::obj-91::obj-4::obj-26" : [ "Offset[12]", "Offset", 0 ],
			"obj-40::obj-91::obj-4::obj-28" : [ "Lacunarity[11]", "Lacunarity", 0 ],
			"obj-40::obj-91::obj-4::obj-32" : [ "H value[11]", "H value", 0 ],
			"obj-40::obj-91::obj-5::obj-23" : [ "Gain[13]", "Gain", 0 ],
			"obj-40::obj-91::obj-5::obj-25" : [ "Offset[13]", "Offset", 0 ],
			"obj-40::obj-91::obj-5::obj-27" : [ "Lacunarity[12]", "Lacunarity", 0 ],
			"obj-40::obj-91::obj-5::obj-31" : [ "H value[12]", "H value", 0 ],
			"obj-40::obj-91::obj-6::obj-11" : [ "Jitter[14]", "Jitter", 0 ],
			"obj-40::obj-91::obj-6::obj-24" : [ "X crackle[2]", "X crackle", 0 ],
			"obj-40::obj-91::obj-6::obj-28" : [ "Y crackle[2]", "Y crackle", 0 ],
			"obj-40::obj-91::obj-6::obj-29" : [ "Z crackle[2]", "Z crackle", 0 ],
			"obj-40::obj-91::obj-9::obj-11" : [ "Jitter[13]", "Jitter", 0 ],
			"obj-40::obj-91::obj-9::obj-16" : [ "Shading[2]", "Shading", 0 ],
			"obj-40::obj-96" : [ "pictctrl[38]", "pictctrl[1]", 0 ],
			"obj-5::obj-22" : [ "Mute", "Mute", 0 ],
			"obj-5::obj-52" : [ "Level", "Level", 0 ],
			"obj-5::obj-55" : [ "DSP", "DSP", 0 ],
			"obj-5::obj-56" : [ "OutputChannel", "OutputChannel", 0 ],
			"obj-63::obj-1" : [ "range[1]", "range", 0 ],
			"obj-63::obj-10" : [ "umenu[1]", "umenu", 0 ],
			"obj-63::obj-51" : [ "pictctrl[47]", "pictctrl[1]", 0 ],
			"obj-63::obj-56::obj-23" : [ "gswitch2[10]", "gswitch2", 0 ],
			"obj-63::obj-6" : [ "pictctrl[173]", "pictctrl[1]", 0 ],
			"obj-63::obj-8" : [ "Amount[3]", "Amount", 0 ],
			"obj-76::obj-104" : [ "pictctrl[112]", "pictctrl[1]", 0 ],
			"obj-76::obj-119" : [ "Brightness[1]", "Brightness", 0 ],
			"obj-76::obj-120" : [ "Brightness range[1]", "Brightness range", 1 ],
			"obj-76::obj-121" : [ "Offset[5]", "Brightness", 0 ],
			"obj-76::obj-127" : [ "Contrast[2]", "Contrast", 0 ],
			"obj-76::obj-128" : [ "Contrast range[1]", "Contrast range", 1 ],
			"obj-76::obj-129" : [ "contrast[1]", "Contrast", 0 ],
			"obj-76::obj-140" : [ "Saturation[1]", "Saturation", 0 ],
			"obj-76::obj-141" : [ "Saturation range[1]", "Saturation range", 1 ],
			"obj-76::obj-142" : [ "saturation[2]", "Saturation", 0 ],
			"obj-76::obj-147" : [ "pictctrl[108]", "pictctrl[1]", 0 ],
			"obj-76::obj-148" : [ "pictctrl[43]", "pictctrl[1]", 0 ],
			"obj-76::obj-149" : [ "pictctrl[113]", "pictctrl[1]", 0 ],
			"obj-76::obj-150" : [ "pictctrl[72]", "pictctrl[1]", 0 ],
			"obj-76::obj-151" : [ "pictctrl[111]", "pictctrl[1]", 0 ],
			"obj-76::obj-56::obj-23" : [ "gswitch2[13]", "gswitch2", 0 ],
			"obj-76::obj-6" : [ "range[5]", "range", 0 ],
			"parameterbanks" : 			{

			}
,
			"parameter_overrides" : 			{
				"obj-10::obj-46" : 				{
					"parameter_longname" : "pictctrl[10]"
				}
,
				"obj-15::obj-50" : 				{
					"parameter_longname" : "Contrast[1]"
				}
,
				"obj-15::obj-71" : 				{
					"parameter_longname" : "pictctrl[6]"
				}
,
				"obj-1::obj-37" : 				{
					"parameter_longname" : "umenu[5]"
				}
,
				"obj-1::obj-51" : 				{
					"parameter_longname" : "pictctrl[70]"
				}
,
				"obj-21::obj-10" : 				{
					"parameter_longname" : "pictctrl[114]"
				}
,
				"obj-21::obj-22" : 				{
					"parameter_longname" : "pictctrl[71]"
				}
,
				"obj-21::obj-29" : 				{
					"parameter_longname" : "pictctrl[117]"
				}
,
				"obj-21::obj-32" : 				{
					"parameter_longname" : "pictctrl[116]"
				}
,
				"obj-21::obj-42" : 				{
					"parameter_longname" : "pictctrl[115]"
				}
,
				"obj-33::obj-91::obj-10::obj-11" : 				{
					"parameter_longname" : "Jitter[2]"
				}
,
				"obj-33::obj-91::obj-11::obj-11" : 				{
					"parameter_longname" : "Jitter[1]"
				}
,
				"obj-33::obj-91::obj-12::obj-23" : 				{
					"parameter_longname" : "Gain[4]"
				}
,
				"obj-33::obj-91::obj-12::obj-25" : 				{
					"parameter_longname" : "Offset[3]"
				}
,
				"obj-33::obj-91::obj-12::obj-27" : 				{
					"parameter_longname" : "Lacunarity[3]"
				}
,
				"obj-33::obj-91::obj-12::obj-31" : 				{
					"parameter_longname" : "H value[3]"
				}
,
				"obj-33::obj-91::obj-15::obj-11" : 				{
					"parameter_longname" : "H value[4]"
				}
,
				"obj-33::obj-91::obj-15::obj-16" : 				{
					"parameter_longname" : "Lacunarity[4]"
				}
,
				"obj-33::obj-91::obj-15::obj-18" : 				{
					"parameter_longname" : "Offset[4]"
				}
,
				"obj-33::obj-91::obj-15::obj-19" : 				{
					"parameter_longname" : "Gain[5]"
				}
,
				"obj-33::obj-91::obj-1::obj-24" : 				{
					"parameter_longname" : "Gain[1]"
				}
,
				"obj-33::obj-91::obj-4::obj-24" : 				{
					"parameter_longname" : "Gain[2]"
				}
,
				"obj-33::obj-91::obj-4::obj-26" : 				{
					"parameter_longname" : "Offset[1]"
				}
,
				"obj-33::obj-91::obj-4::obj-28" : 				{
					"parameter_longname" : "Lacunarity[1]"
				}
,
				"obj-33::obj-91::obj-4::obj-32" : 				{
					"parameter_longname" : "H value[1]"
				}
,
				"obj-33::obj-91::obj-5::obj-23" : 				{
					"parameter_longname" : "Gain[3]"
				}
,
				"obj-33::obj-91::obj-5::obj-25" : 				{
					"parameter_longname" : "Offset[2]"
				}
,
				"obj-33::obj-91::obj-5::obj-27" : 				{
					"parameter_longname" : "Lacunarity[2]"
				}
,
				"obj-33::obj-91::obj-5::obj-31" : 				{
					"parameter_longname" : "H value[2]"
				}
,
				"obj-33::obj-91::obj-6::obj-11" : 				{
					"parameter_longname" : "Jitter[4]"
				}
,
				"obj-33::obj-91::obj-9::obj-11" : 				{
					"parameter_longname" : "Jitter[3]"
				}
,
				"obj-38::obj-104" : 				{
					"parameter_longname" : "pictctrl[152]"
				}
,
				"obj-38::obj-121" : 				{
					"parameter_longname" : "Offset[10]"
				}
,
				"obj-38::obj-147" : 				{
					"parameter_longname" : "pictctrl[151]"
				}
,
				"obj-38::obj-148" : 				{
					"parameter_longname" : "pictctrl[153]"
				}
,
				"obj-38::obj-149" : 				{
					"parameter_longname" : "pictctrl[150]"
				}
,
				"obj-38::obj-150" : 				{
					"parameter_longname" : "pictctrl[154]"
				}
,
				"obj-38::obj-151" : 				{
					"parameter_longname" : "pictctrl[149]"
				}
,
				"obj-40::obj-100" : 				{
					"parameter_longname" : "Speed[3]"
				}
,
				"obj-40::obj-104" : 				{
					"parameter_longname" : "pictctrl[46]"
				}
,
				"obj-40::obj-15" : 				{
					"parameter_longname" : "pictctrl[59]"
				}
,
				"obj-40::obj-17" : 				{
					"parameter_longname" : "pictctrl[39]"
				}
,
				"obj-40::obj-21" : 				{
					"parameter_longname" : "Colorize[2]"
				}
,
				"obj-40::obj-23" : 				{
					"parameter_longname" : "pictctrl[69]"
				}
,
				"obj-40::obj-26" : 				{
					"parameter_longname" : "pictctrl[37]"
				}
,
				"obj-40::obj-37" : 				{
					"parameter_longname" : "pictctrl[56]"
				}
,
				"obj-40::obj-46" : 				{
					"parameter_longname" : "pictctrl[55]"
				}
,
				"obj-40::obj-5" : 				{
					"parameter_longname" : "Function[2]"
				}
,
				"obj-40::obj-55" : 				{
					"parameter_longname" : "Bcolorize[2]"
				}
,
				"obj-40::obj-56" : 				{
					"parameter_longname" : "Gcolorize[2]"
				}
,
				"obj-40::obj-57" : 				{
					"parameter_longname" : "Rcolorize[2]"
				}
,
				"obj-40::obj-59" : 				{
					"parameter_longname" : "pictctrl[45]"
				}
,
				"obj-40::obj-61" : 				{
					"parameter_longname" : "Zoom hi[2]"
				}
,
				"obj-40::obj-76" : 				{
					"parameter_longname" : "pictctrl[60]"
				}
,
				"obj-40::obj-78" : 				{
					"parameter_longname" : "Zoom lo[2]"
				}
,
				"obj-40::obj-8" : 				{
					"parameter_longname" : "pictctrl[58]"
				}
,
				"obj-40::obj-85" : 				{
					"parameter_longname" : "pictctrl[57]"
				}
,
				"obj-40::obj-91::obj-10::obj-11" : 				{
					"parameter_longname" : "Jitter[12]"
				}
,
				"obj-40::obj-91::obj-10::obj-19" : 				{
					"parameter_longname" : "Amount[2]"
				}
,
				"obj-40::obj-91::obj-11::obj-11" : 				{
					"parameter_longname" : "Jitter[11]"
				}
,
				"obj-40::obj-91::obj-11::obj-18" : 				{
					"parameter_longname" : "Smoothing[2]"
				}
,
				"obj-40::obj-91::obj-12::obj-23" : 				{
					"parameter_longname" : "Gain[14]"
				}
,
				"obj-40::obj-91::obj-12::obj-25" : 				{
					"parameter_longname" : "Offset[14]"
				}
,
				"obj-40::obj-91::obj-12::obj-27" : 				{
					"parameter_longname" : "Lacunarity[13]"
				}
,
				"obj-40::obj-91::obj-12::obj-31" : 				{
					"parameter_longname" : "H value[13]"
				}
,
				"obj-40::obj-91::obj-13::obj-11" : 				{
					"parameter_longname" : "Jitter[10]"
				}
,
				"obj-40::obj-91::obj-15::obj-11" : 				{
					"parameter_longname" : "H value[14]"
				}
,
				"obj-40::obj-91::obj-15::obj-16" : 				{
					"parameter_longname" : "Lacunarity[14]"
				}
,
				"obj-40::obj-91::obj-15::obj-18" : 				{
					"parameter_longname" : "Offset[15]"
				}
,
				"obj-40::obj-91::obj-15::obj-19" : 				{
					"parameter_longname" : "Gain[15]"
				}
,
				"obj-40::obj-91::obj-1::obj-24" : 				{
					"parameter_longname" : "Gain[11]"
				}
,
				"obj-40::obj-91::obj-1::obj-26" : 				{
					"parameter_longname" : "Offset[11]"
				}
,
				"obj-40::obj-91::obj-1::obj-28" : 				{
					"parameter_longname" : "Lacunarity[10]"
				}
,
				"obj-40::obj-91::obj-1::obj-32" : 				{
					"parameter_longname" : "H value[10]"
				}
,
				"obj-40::obj-91::obj-3::obj-11" : 				{
					"parameter_longname" : "Distortion[2]"
				}
,
				"obj-40::obj-91::obj-4::obj-24" : 				{
					"parameter_longname" : "Gain[12]"
				}
,
				"obj-40::obj-91::obj-4::obj-26" : 				{
					"parameter_longname" : "Offset[12]"
				}
,
				"obj-40::obj-91::obj-4::obj-28" : 				{
					"parameter_longname" : "Lacunarity[11]"
				}
,
				"obj-40::obj-91::obj-4::obj-32" : 				{
					"parameter_longname" : "H value[11]"
				}
,
				"obj-40::obj-91::obj-5::obj-23" : 				{
					"parameter_longname" : "Gain[13]"
				}
,
				"obj-40::obj-91::obj-5::obj-25" : 				{
					"parameter_longname" : "Offset[13]"
				}
,
				"obj-40::obj-91::obj-5::obj-27" : 				{
					"parameter_longname" : "Lacunarity[12]"
				}
,
				"obj-40::obj-91::obj-5::obj-31" : 				{
					"parameter_longname" : "H value[12]"
				}
,
				"obj-40::obj-91::obj-6::obj-11" : 				{
					"parameter_longname" : "Jitter[14]"
				}
,
				"obj-40::obj-91::obj-6::obj-24" : 				{
					"parameter_longname" : "X crackle[2]"
				}
,
				"obj-40::obj-91::obj-6::obj-28" : 				{
					"parameter_longname" : "Y crackle[2]"
				}
,
				"obj-40::obj-91::obj-6::obj-29" : 				{
					"parameter_longname" : "Z crackle[2]"
				}
,
				"obj-40::obj-91::obj-9::obj-11" : 				{
					"parameter_longname" : "Jitter[13]"
				}
,
				"obj-40::obj-91::obj-9::obj-16" : 				{
					"parameter_longname" : "Shading[2]"
				}
,
				"obj-40::obj-96" : 				{
					"parameter_longname" : "pictctrl[38]"
				}
,
				"obj-63::obj-6" : 				{
					"parameter_longname" : "pictctrl[173]"
				}
,
				"obj-63::obj-8" : 				{
					"parameter_longname" : "Amount[3]"
				}
,
				"obj-76::obj-104" : 				{
					"parameter_longname" : "pictctrl[112]"
				}
,
				"obj-76::obj-119" : 				{
					"parameter_longname" : "Brightness[1]"
				}
,
				"obj-76::obj-121" : 				{
					"parameter_longname" : "Offset[5]"
				}
,
				"obj-76::obj-127" : 				{
					"parameter_longname" : "Contrast[2]"
				}
,
				"obj-76::obj-129" : 				{
					"parameter_longname" : "contrast[1]"
				}
,
				"obj-76::obj-140" : 				{
					"parameter_longname" : "Saturation[1]"
				}
,
				"obj-76::obj-142" : 				{
					"parameter_longname" : "saturation[2]"
				}
,
				"obj-76::obj-147" : 				{
					"parameter_longname" : "pictctrl[108]"
				}
,
				"obj-76::obj-149" : 				{
					"parameter_longname" : "pictctrl[113]"
				}
,
				"obj-76::obj-150" : 				{
					"parameter_longname" : "pictctrl[72]"
				}
,
				"obj-76::obj-151" : 				{
					"parameter_longname" : "pictctrl[111]"
				}

			}
,
			"inherited_shortname" : 1
		}
,
		"dependency_cache" : [ 			{
				"name" : "555 OSC Core Freestyle (128).wav",
				"bootpath" : "~/Downloads",
				"patcherrelativepath" : "../../../Downloads",
				"type" : "WAVE",
				"implicit" : 1
			}
, 			{
				"name" : "bfgenerator_UI.maxpat",
				"bootpath" : "C74:/packages/Vizzie/patchers/bfg",
				"type" : "JSON",
				"implicit" : 1
			}
, 			{
				"name" : "bp.Stereo.maxpat",
				"bootpath" : "C74:/packages/BEAP/clippings/BEAP/Output",
				"type" : "JSON",
				"implicit" : 1
			}
, 			{
				"name" : "brcosa.genjit",
				"bootpath" : "~/Library/Application Support/Cycling '74/Max 8/Examples/jitter-examples/gen",
				"patcherrelativepath" : "../../../Library/Application Support/Cycling '74/Max 8/Examples/jitter-examples/gen",
				"type" : "gJIT",
				"implicit" : 1
			}
, 			{
				"name" : "data-handler-L.maxpat",
				"bootpath" : "C74:/packages/Vizzie/patchers/utils",
				"type" : "JSON",
				"implicit" : 1
			}
, 			{
				"name" : "data-handler.maxpat",
				"bootpath" : "C74:/packages/Vizzie/patchers/utils",
				"type" : "JSON",
				"implicit" : 1
			}
, 			{
				"name" : "distorted_controls.maxpat",
				"bootpath" : "C74:/packages/Vizzie/patchers/bfg",
				"type" : "JSON",
				"implicit" : 1
			}
, 			{
				"name" : "exact_menu.maxpat",
				"bootpath" : "C74:/packages/Vizzie/patchers/utils",
				"type" : "JSON",
				"implicit" : 1
			}
, 			{
				"name" : "fractal_fbm_controls.maxpat",
				"bootpath" : "C74:/packages/Vizzie/patchers/bfg",
				"type" : "JSON",
				"implicit" : 1
			}
, 			{
				"name" : "fractal_hetero_controls.maxpat",
				"bootpath" : "C74:/packages/Vizzie/patchers/bfg",
				"type" : "JSON",
				"implicit" : 1
			}
, 			{
				"name" : "fractal_hybrid_controls.maxpat",
				"bootpath" : "C74:/packages/Vizzie/patchers/bfg",
				"type" : "JSON",
				"implicit" : 1
			}
, 			{
				"name" : "fractal_multi_controls.maxpat",
				"bootpath" : "C74:/packages/Vizzie/patchers/bfg",
				"type" : "JSON",
				"implicit" : 1
			}
, 			{
				"name" : "fractal_rigid_controls.maxpat",
				"bootpath" : "C74:/packages/Vizzie/patchers/bfg",
				"type" : "JSON",
				"implicit" : 1
			}
, 			{
				"name" : "jit.mo.time.mxo",
				"type" : "iLaX"
			}
, 			{
				"name" : "lo_hi_UI_control.maxpat",
				"bootpath" : "C74:/packages/Vizzie/patchers/utils",
				"type" : "JSON",
				"implicit" : 1
			}
, 			{
				"name" : "noise_voronoi_controls.maxpat",
				"bootpath" : "C74:/packages/Vizzie/patchers/bfg",
				"type" : "JSON",
				"implicit" : 1
			}
, 			{
				"name" : "noise_voronoi_crackle_controls.maxpat",
				"bootpath" : "C74:/packages/Vizzie/patchers/bfg",
				"type" : "JSON",
				"implicit" : 1
			}
, 			{
				"name" : "noise_voronoi_id_controls.maxpat",
				"bootpath" : "C74:/packages/Vizzie/patchers/bfg",
				"type" : "JSON",
				"implicit" : 1
			}
, 			{
				"name" : "noise_voronoi_smooth_controls.maxpat",
				"bootpath" : "C74:/packages/Vizzie/patchers/bfg",
				"type" : "JSON",
				"implicit" : 1
			}
, 			{
				"name" : "noise_voronoise_controls.maxpat",
				"bootpath" : "C74:/packages/Vizzie/patchers/bfg",
				"type" : "JSON",
				"implicit" : 1
			}
, 			{
				"name" : "video-handler.maxpat",
				"bootpath" : "C74:/packages/Vizzie/patchers/utils",
				"type" : "JSON",
				"implicit" : 1
			}
, 			{
				"name" : "vizzie-datatexconvert.js",
				"bootpath" : "C74:/packages/Vizzie/code",
				"type" : "TEXT",
				"implicit" : 1
			}
, 			{
				"name" : "vizzie-global.js",
				"bootpath" : "C74:/packages/Vizzie/code",
				"type" : "TEXT",
				"implicit" : 1
			}
, 			{
				"name" : "vz.audiosplittr.maxpat",
				"bootpath" : "C74:/packages/Vizzie/patchers",
				"type" : "JSON",
				"implicit" : 1
			}
, 			{
				"name" : "vz.bfgener8r.maxpat",
				"bootpath" : "C74:/packages/Vizzie/patchers",
				"type" : "JSON",
				"implicit" : 1
			}
, 			{
				"name" : "vz.brcosr.maxpat",
				"bootpath" : "C74:/packages/Vizzie/patchers",
				"type" : "JSON",
				"implicit" : 1
			}
, 			{
				"name" : "vz.modemixr.maxpat",
				"bootpath" : "C74:/packages/Vizzie/patchers",
				"type" : "JSON",
				"implicit" : 1
			}
, 			{
				"name" : "vz.projectr.maxpat",
				"bootpath" : "C74:/packages/Vizzie/patchers",
				"type" : "JSON",
				"implicit" : 1
			}
, 			{
				"name" : "vz.sketchr.maxpat",
				"bootpath" : "C74:/packages/Vizzie/patchers",
				"type" : "JSON",
				"implicit" : 1
			}
, 			{
				"name" : "vz.startr.maxpat",
				"bootpath" : "C74:/packages/Vizzie/patchers",
				"type" : "JSON",
				"implicit" : 1
			}
, 			{
				"name" : "vz.technicolor8r.maxpat",
				"bootpath" : "C74:/packages/Vizzie/patchers",
				"type" : "JSON",
				"implicit" : 1
			}
, 			{
				"name" : "vzgl-blackframe.maxpat",
				"bootpath" : "C74:/packages/Vizzie/patchers/utils",
				"type" : "JSON",
				"implicit" : 1
			}
, 			{
				"name" : "vzgl-context.maxpat",
				"bootpath" : "C74:/packages/Vizzie/patchers/utils",
				"type" : "JSON",
				"implicit" : 1
			}
, 			{
				"name" : "vzgl-disable.maxpat",
				"bootpath" : "C74:/packages/Vizzie/patchers/utils",
				"type" : "JSON",
				"implicit" : 1
			}
, 			{
				"name" : "vzgl-object.maxpat",
				"bootpath" : "C74:/packages/Vizzie/patchers/utils",
				"type" : "JSON",
				"implicit" : 1
			}
, 			{
				"name" : "vzgl-outputdim.maxpat",
				"bootpath" : "C74:/packages/Vizzie/patchers/utils",
				"type" : "JSON",
				"implicit" : 1
			}
 ],
		"autosave" : 0
	}

}
